<svg width="107" height="86" viewBox="0 0 107 86" fill="none" xmlns="http://www.w3.org/2000/svg">
<path d="M73.6486 37.1647H96.5937C96.8709 37.1648 97.1424 37.2439 97.3763 37.3927C97.6102 37.5415 97.7968 37.7538 97.9144 38.0049C98.0319 38.2559 98.0755 38.5353 98.0401 38.8102C98.0046 39.0851 97.8916 39.3443 97.7141 39.5573L86.2416 53.329C86.1047 53.4932 85.9333 53.6253 85.7397 53.7159C85.5461 53.8065 85.335 53.8535 85.1212 53.8535C84.9074 53.8535 84.6962 53.8065 84.5026 53.7159C84.309 53.6253 84.1377 53.4932 84.0008 53.329L72.5282 39.5573C72.3508 39.3443 72.2377 39.0851 72.2023 38.8102C72.1668 38.5353 72.2104 38.2559 72.328 38.0049C72.4455 37.7538 72.6322 37.5415 72.8661 37.3927C73.1 37.2439 73.3714 37.1648 73.6486 37.1647ZM9.45832 48.8357H32.4034C32.6806 48.8356 32.9521 48.7565 33.186 48.6077C33.4199 48.4589 33.6065 48.2465 33.7241 47.9955C33.8416 47.7445 33.8852 47.4651 33.8498 47.1902C33.8143 46.9153 33.7013 46.6561 33.5239 46.4431L22.0513 32.6714C21.9144 32.5072 21.7431 32.3751 21.5494 32.2845C21.3558 32.1938 21.1447 32.1469 20.9309 32.1469C20.7171 32.1469 20.5059 32.1938 20.3123 32.2845C20.1187 32.3751 19.9474 32.5072 19.8105 32.6714L8.33791 46.4431C8.1605 46.6561 8.04745 46.9153 8.01199 47.1902C7.97653 47.4651 8.02013 47.7445 8.13769 47.9955C8.25525 48.2465 8.44191 48.4589 8.67579 48.6077C8.90968 48.7565 9.18112 48.8356 9.45832 48.8357Z" fill="black"/>
<path fill-rule="evenodd" clip-rule="evenodd" d="M53.0259 13.8226C43.9692 13.8226 35.8695 17.9483 30.5184 24.4315C30.2795 24.7412 29.9807 24.9997 29.6398 25.1916C29.299 25.3835 28.923 25.505 28.5343 25.5487C28.1456 25.5924 27.752 25.5575 27.3771 25.446C27.0021 25.3346 26.6534 25.1489 26.3516 24.9C26.0499 24.6511 25.8013 24.344 25.6205 23.9971C25.4398 23.6501 25.3307 23.2704 25.2997 22.8805C25.2687 22.4905 25.3164 22.0983 25.4401 21.7272C25.5637 21.3561 25.7606 21.0136 26.0192 20.7201C30.2919 15.5471 35.9605 11.7102 42.3508 9.66572C48.7411 7.62123 55.5841 7.45521 62.066 9.18741C68.548 10.9196 74.3959 14.4771 78.9144 19.4368C83.433 24.3965 86.4318 30.5497 87.5544 37.1645H81.6197C80.2724 30.5751 76.6909 24.6532 71.4808 20.4C66.2706 16.1468 59.7516 13.8234 53.0259 13.8226ZM24.432 48.8355C25.5367 54.2311 28.1454 59.2041 31.9567 63.1799C35.768 67.1557 40.6264 69.9721 45.9705 71.3038C51.3147 72.6354 56.9265 72.4278 62.1578 70.7052C67.389 68.9825 72.0261 65.815 75.5333 61.5685C75.7723 61.2588 76.071 61.0003 76.4119 60.8084C76.7527 60.6165 77.1287 60.495 77.5174 60.4513C77.9062 60.4076 78.2997 60.4425 78.6747 60.554C79.0496 60.6654 79.3983 60.8511 79.7001 61.1C80.0018 61.3489 80.2505 61.656 80.4312 62.0029C80.6119 62.3499 80.721 62.7296 80.752 63.1195C80.783 63.5095 80.7353 63.9017 80.6117 64.2728C80.4881 64.6439 80.2911 64.9864 80.0325 65.2799C75.7598 70.4529 70.0912 74.2898 63.7009 76.3343C57.3106 78.3788 50.4676 78.5448 43.9857 76.8126C37.5038 75.0804 31.6558 71.5229 27.1373 66.5632C22.6188 61.6035 19.6199 55.4503 18.4973 48.8355H24.432Z" fill="black"/>
</svg>
