<svg width="72" height="72" viewBox="0 0 72 72" fill="none" xmlns="http://www.w3.org/2000/svg">
<path d="M27.7812 5.32696C29.1864 2.18739 32.3378 0 36 0C39.6622 0 42.8136 2.18739 44.2188 5.32696C47.0056 3.31064 50.8284 2.99198 54 4.8231C57.1716 6.65422 58.807 10.1242 58.4542 13.5458C61.8759 13.1928 65.346 14.8283 67.1772 18C69.0083 21.1716 68.6896 24.9945 66.6732 27.7813C69.8127 29.1865 72 32.3378 72 36C72 39.6622 69.8126 42.8135 66.6731 44.2188C68.6896 47.0056 69.0084 50.8286 67.1772 54.0003C65.346 57.1719 61.8759 58.8074 58.4543 58.4545C58.807 61.8759 57.1715 65.3458 54 67.1769C50.8284 69.008 47.0056 68.6894 44.2188 66.673C42.8136 69.8126 39.6623 72 36 72C32.3377 72 29.1864 69.8126 27.7812 66.673C24.9944 68.6894 21.1716 69.008 18 67.1769C14.8284 65.3458 13.1929 61.8758 13.5458 58.4542C10.1241 58.8071 6.65398 57.1716 4.82282 54C2.99168 50.8284 3.31037 47.0055 5.32675 44.2187C2.1873 42.8134 0 39.6622 0 36C0 32.3378 2.18738 29.1864 5.32692 27.7812C3.31039 24.9944 2.99163 21.1714 4.82282 17.9997C6.65399 14.828 10.1241 13.1926 13.5458 13.5455C13.1931 10.124 14.8285 6.65416 18 4.82309C21.1716 2.99198 24.9944 3.31064 27.7812 5.32696ZM36 4.5C33.5147 4.5 31.5 6.51463 31.5 8.99991C31.5 8.99991 31.5012 9.04915 31.5089 9.13812C31.5176 9.23803 31.5327 9.3722 31.557 9.54439C31.606 9.892 31.6841 10.3356 31.7951 10.8774C32.0174 11.9622 32.3455 13.3156 32.7563 14.8668C33.5765 17.9641 34.6803 21.6776 35.798 25.2808L36 25.9304L36.202 25.2808C37.3197 21.6776 38.4235 17.9641 39.2437 14.8668C39.6545 13.3156 39.9826 11.9622 40.2049 10.8774C40.3159 10.3356 40.394 9.892 40.443 9.54439C40.4673 9.3722 40.4824 9.23803 40.4911 9.13812C40.4988 9.04897 40.5 9 40.5 9C40.5 6.51472 38.4853 4.5 36 4.5ZM9 40.5C9 40.5 9.04897 40.4988 9.13812 40.4911C9.23803 40.4824 9.3722 40.4673 9.54439 40.443C9.892 40.394 10.3356 40.3159 10.8774 40.2049C11.9622 39.9826 13.3156 39.6545 14.8668 39.2437C17.9641 38.4235 21.6776 37.3197 25.2808 36.202L25.9304 36L25.2808 35.798C21.6776 34.6803 17.9641 33.5765 14.8668 32.7563C13.3156 32.3455 11.9622 32.0174 10.8774 31.7951C10.3356 31.6841 9.892 31.606 9.54439 31.557C9.3722 31.5327 9.23803 31.5176 9.13812 31.5089C9.04915 31.5012 8.99924 31.5 8.99924 31.5C6.51396 31.5 4.5 33.5147 4.5 36C4.5 38.4853 6.51472 40.5 9 40.5ZM40.5 63C40.5 63 40.4988 62.951 40.4911 62.8619C40.4824 62.762 40.4673 62.6278 40.443 62.4556C40.394 62.108 40.3159 61.6644 40.2049 61.1226C39.9826 60.0378 39.6545 58.6844 39.2437 57.1332C38.4235 54.0359 37.3197 50.3224 36.202 46.7192L36 46.0696L35.798 46.7192C34.6803 50.3224 33.5765 54.0359 32.7563 57.1332C32.3455 58.6844 32.0174 60.0378 31.7951 61.1226C31.6841 61.6644 31.606 62.108 31.557 62.4556C31.5327 62.6278 31.5176 62.762 31.5089 62.8619C31.5012 62.9508 31.5 63.0008 31.5 63.0008C31.5 65.486 33.5147 67.5 36 67.5C38.4853 67.5 40.5 65.4853 40.5 63ZM14.867 53.3971C14.867 53.3971 14.9089 53.3715 14.9822 53.3203C15.0644 53.2628 15.173 53.1827 15.31 53.0756C15.5865 52.8593 15.9316 52.5698 16.3453 52.2028C17.1737 51.4679 18.1818 50.507 19.3197 49.3757C21.5919 47.1167 24.256 44.304 26.8176 41.5345L27.2792 41.0348L26.6156 41.1846C22.9364 42.0183 19.1684 42.9191 16.076 43.7574C14.5273 44.1773 13.1911 44.5699 12.1405 44.9198C11.6158 45.0945 11.1925 45.2487 10.867 45.38C10.7057 45.4451 10.582 45.4991 10.4911 45.5415C10.4108 45.579 10.3664 45.6032 10.3664 45.6032C8.21408 46.8459 7.47729 49.5977 8.71993 51.75C9.96257 53.9023 12.7147 54.6397 14.867 53.3971ZM20.25 63.2798C22.4023 64.5224 25.1545 63.785 26.3971 61.6327C26.3971 61.6327 26.4208 61.5892 26.4584 61.5086C26.5009 61.4177 26.5549 61.294 26.62 61.1327C26.7513 60.8072 26.9054 60.3839 27.0802 59.8592C27.4301 58.8087 27.8227 57.4725 28.2425 55.9237C29.0808 52.8313 29.9817 49.0634 30.8153 45.3841L30.9652 44.7205L30.4654 45.1821C27.6959 47.7437 24.8832 50.4078 22.6243 52.68C21.4929 53.818 20.532 54.826 19.7972 55.6544C19.4301 56.0681 19.1407 56.4132 18.9244 56.6897C18.8173 56.8267 18.7371 56.9353 18.6797 57.0175C18.6245 57.0964 18.6025 57.1333 18.6025 57.1333C17.3598 59.2857 18.0977 62.0372 20.25 63.2798ZM61.6329 26.3971C63.7853 25.1545 64.5227 22.4023 63.2801 20.25C62.0374 18.0977 59.2859 17.3598 57.1336 18.6025C57.1336 18.6025 57.091 18.6285 57.0178 18.6797C56.9356 18.7371 56.827 18.8173 56.69 18.9244C56.4135 19.1407 56.0684 19.4301 55.6547 19.7972C54.8263 20.532 53.8182 21.4929 52.6803 22.6243C50.4081 24.8832 47.744 27.6959 45.1824 30.4654L44.7208 30.9652L45.3844 30.8153C49.0636 29.9817 52.8316 29.0808 55.924 28.2425C57.4727 27.8227 58.8089 27.4301 59.8595 27.0802C60.3842 26.9054 60.8075 26.7513 61.133 26.62C61.2943 26.5549 61.418 26.5009 61.5089 26.4584C61.5896 26.4207 61.6329 26.3971 61.6329 26.3971ZM51.75 8.72021C49.5977 7.47757 46.8459 8.21435 45.6032 10.3667C45.6032 10.3667 45.5823 10.4042 45.5415 10.4914C45.4991 10.5823 45.4451 10.706 45.38 10.8673C45.2487 11.1928 45.0945 11.6161 44.9198 12.1408C44.5699 13.1913 44.1773 14.5275 43.7574 16.0763C42.9191 19.1687 42.0183 22.9366 41.1846 26.6159L41.0348 27.2795L41.5345 26.8179C44.304 24.2563 47.1167 21.5922 49.3757 19.32C50.507 18.182 51.4679 17.1739 52.2028 16.3456C52.5698 15.9319 52.8593 15.5868 53.0756 15.3103C53.1827 15.1733 53.2628 15.0647 53.3203 14.9825C53.3755 14.9036 53.3971 14.8673 53.3971 14.8673C54.6397 12.715 53.9023 9.96285 51.75 8.72021ZM63 40.5C65.4853 40.5 67.5 38.4853 67.5 36C67.5 33.5147 65.486 31.5 63.0008 31.5C63.0008 31.5 62.9578 31.5006 62.8619 31.5089C62.762 31.5176 62.6278 31.5327 62.4556 31.557C62.108 31.606 61.6644 31.6841 61.1226 31.7951C60.0378 32.0174 58.6844 32.3455 57.1332 32.7563C54.0359 33.5765 50.3224 34.6803 46.7192 35.798L46.0696 36L46.7192 36.202C50.3224 37.3197 54.0359 38.4235 57.1332 39.2437C58.6844 39.6545 60.0378 39.9826 61.1226 40.2049C61.6644 40.3159 62.108 40.394 62.4556 40.443C62.6278 40.4673 62.762 40.4824 62.8619 40.4911C62.951 40.4988 63 40.5 63 40.5ZM8.71994 20.2497C7.4773 22.402 8.21473 25.1542 10.3671 26.3968C10.3671 26.3968 10.4103 26.4204 10.4911 26.4581C10.582 26.5006 10.7057 26.5546 10.867 26.6197C11.1925 26.751 11.6158 26.9052 12.1405 27.0799C13.1911 27.4298 14.5273 27.8224 16.076 28.2423C19.1684 29.0806 22.9364 29.9814 26.6156 30.815L27.2792 30.9649L26.8176 30.4651C24.256 27.6957 21.5919 24.883 19.3197 22.624C18.1818 21.4926 17.1737 20.5318 16.3453 19.7969C15.9316 19.4299 15.5865 19.1404 15.31 18.9241C15.173 18.817 15.0644 18.7369 14.9822 18.6794C14.9091 18.6282 14.867 18.6026 14.867 18.6026C12.7147 17.3599 9.96258 18.0974 8.71994 20.2497ZM18.6029 14.8673C18.6029 14.8673 18.6286 14.9093 18.6797 14.9825C18.7372 15.0647 18.8173 15.1733 18.9244 15.3103C19.1407 15.5868 19.4302 15.9319 19.7972 16.3456C20.5321 17.1739 21.493 18.182 22.6243 19.32C24.8833 21.5922 27.696 24.2563 30.4655 26.8179L30.9652 27.2795L30.8154 26.6159C29.9817 22.9366 29.0809 19.1687 28.2426 16.0763C27.8227 14.5275 27.4301 13.1913 27.0802 12.1407C26.9055 11.6161 26.7513 11.1928 26.62 10.8673C26.5549 10.706 26.5009 10.5823 26.4585 10.4914C26.4208 10.4107 26.3968 10.3667 26.3968 10.3667C25.1541 8.21435 22.4023 7.47757 20.25 8.72021C18.0977 9.96285 17.3603 12.715 18.6029 14.8673ZM63.2801 51.7503C64.5227 49.5979 63.7853 46.8458 61.633 45.6032C61.633 45.6032 61.5895 45.5795 61.5089 45.5418C61.418 45.4994 61.2943 45.4453 61.133 45.3803C60.8075 45.2489 60.3842 45.0948 59.8595 44.92C58.8089 44.5701 57.4727 44.1775 55.924 43.7577C52.8316 42.9194 49.0636 42.0186 45.3844 41.1849L44.7208 41.035L45.1824 41.5348C47.744 44.3043 50.4081 47.117 52.6803 49.376C53.8182 50.5073 54.8263 51.4682 55.6547 52.2031C56.0684 52.5701 56.4135 52.8596 56.69 53.0758C56.827 53.183 56.9356 53.2631 57.0178 53.3206C57.0906 53.3715 57.1329 53.3974 57.1329 53.3974C59.2853 54.64 62.0374 53.9026 63.2801 51.7503ZM45.6029 61.6327C46.8455 63.785 49.5977 64.5224 51.75 63.2798C53.9023 62.0372 54.6402 59.2857 53.3975 57.1333C53.3975 57.1333 53.3716 57.0909 53.3203 57.0175C53.2629 56.9353 53.1827 56.8267 53.0756 56.6897C52.8593 56.4132 52.5699 56.0681 52.2028 55.6544C51.468 54.8261 50.5071 53.818 49.3757 52.68C47.1168 50.4078 44.3041 47.7437 41.5346 45.1821L41.0348 44.7205L41.1847 45.3841C42.0183 49.0634 42.9192 52.8313 43.7575 55.9237C44.1773 57.4725 44.5699 58.8087 44.9198 59.8592C45.0946 60.3839 45.2487 60.8072 45.38 61.1327C45.4451 61.294 45.4991 61.4177 45.5416 61.5086C45.5794 61.5897 45.6029 61.6327 45.6029 61.6327ZM36 42.75C39.7279 42.75 42.75 39.7279 42.75 36C42.75 32.2721 39.7279 29.25 36 29.25C32.2721 29.25 29.25 32.2721 29.25 36C29.25 39.7279 32.2721 42.75 36 42.75Z" fill="black"/>
</svg>
