<svg width="86" height="86" viewBox="0 0 86 86" fill="none" xmlns="http://www.w3.org/2000/svg">
<path d="M42.9393 77.9997C41.1816 77.9881 39.4993 77.2837 38.2576 76.0396L9.96168 47.7314C8.70563 46.4752 8 44.7715 8 42.9951C8 41.2187 8.70563 39.5151 9.96168 38.2589L38.2576 9.96381C38.8797 9.34123 39.6184 8.84736 40.4315 8.5104C41.2446 8.17344 42.1161 8 42.9962 8C43.8763 8 44.7478 8.17344 45.5609 8.5104C46.374 8.84736 47.1127 9.34123 47.7348 9.96381L76.0395 38.2632C76.6687 38.8911 77.1662 39.6383 77.5028 40.461C77.8394 41.2837 78.0083 42.1654 77.9997 43.0542C77.988 44.8119 77.2837 46.4941 76.0395 47.7358L47.7304 76.0396C47.103 76.6682 46.3565 77.1654 45.5346 77.502C44.7127 77.8386 43.8318 78.0078 42.9437 77.9997H42.9393ZM41.4167 13.114L28.8461 25.6886L42.9962 39.8384L57.1464 25.6886L44.5757 13.114C44.3685 12.9063 44.1223 12.7415 43.8512 12.6291C43.5802 12.5167 43.2896 12.4588 42.9962 12.4588C42.7028 12.4588 42.4122 12.5167 42.1412 12.6291C41.8701 12.7415 41.6239 12.9063 41.4167 13.114ZM46.1553 42.9973L60.3054 57.147L72.8761 44.5768C73.7511 43.7017 73.7511 42.2885 72.8761 41.4178L60.3054 28.8476L46.1553 42.9973ZM42.9962 46.1563L28.8461 60.306L41.4167 72.8762C42.2918 73.7513 43.705 73.7513 44.5757 72.8762L57.1464 60.306L42.9962 46.1563ZM39.8371 42.9973L25.687 28.8476L13.112 41.4178C12.6936 41.837 12.4586 42.4051 12.4586 42.9973C12.4586 43.5896 12.6936 44.1576 13.112 44.5768L25.687 57.147L39.8371 42.9973Z" fill="black"/>
</svg>
